<mxfile host="app.diagrams.net" agent="Mozilla/5.0 (Windows NT 10.0; Win64; x64) AppleWebKit/537.36 (KHTML, like Gecko) Chrome/134.0.0.0 YaBrowser/25.4.0.0 Safari/537.36" version="27.1.4">
  <diagram name="Сетевой график" id="3i7X6bGUiPzbAnYL8wm6">
    <mxGraphModel dx="1787" dy="2150" grid="1" gridSize="10" guides="1" tooltips="1" connect="1" arrows="1" fold="1" page="1" pageScale="1" pageWidth="827" pageHeight="1169" math="0" shadow="0">
      <root>
        <mxCell id="0" />
        <mxCell id="1" parent="0" />
        <mxCell id="we2jFcYLo7zp4mPyi02R-19" value="" style="shape=image;verticalLabelPosition=bottom;labelBackgroundColor=default;verticalAlign=top;aspect=fixed;imageAspect=0;image=data:image/png,iVBORw0KGgoAAAANSUhEUgAAAGEAAAEhCAYAAABvKc57AAAAAXNSR0IArs4c6QAAAARnQU1BAACxjwv8YQUAAAAJcEhZcwAADsMAAA7DAcdvqGQAAFOASURBVHhe7d0HuGxXVQfwIXbFhig2IopAFAGlCERRghJEghQJhKDElwCCkgKKmqKBoGBQJBICCiLmEUFeYolKiKASEoIRafYGKmLFrtjLcf8Wdw3nnXf2aTP3vhfg/33zzb0zp+y9+lp7nT03aQpWG8Dpf/qnf7r6jM/4jNWHfuiH7nx6MP77v/979Ud/9Eer293udjuf1PE///M/qw/5kA9Z3eQmN9n55P0fR03hwX/9138FcbpwrtenfuqnBtHyf8e2r+u7//3f/93572A47l//9V9X//d//xf/v/3tb4/3TeG6f/M3f7P653/+5xACc/iP//iP+DvH6TOv9lj74Hvj7x7nf9fMsS/FTcqgGpJnsO95z3tCCl0UYRDTzf/6r/969WEf9mGrj/zIj4z/Ddxxd7rTnVbvfOc74zvnfsInfEKc8yd/8ieru9/97vE/QvzjP/5jEPdLvuRLVh/3cR+3+pd/+ZfVX/7lX65uc5vbxCD+/M//fHWLW9wimIVI//7v/x6f/9M//dPqIz7iI1b/8A//EPf8tE/7tPjOxI3XZx/zMR8Tx7rvu971rriOexxzzDGrV7ziFaub3/zm8Z1r/Od//mcIzKd/+qfHdYzTd1/+5V+++uzP/uyYp7H85m/+ZoztMz/zM1d/9Vd/FXP9mZ/5mdU3f/M3h7a7jns794Ybblh94Rd+YdDGvIz/wz/8w1c3u9nNVn/3d3+3+tiP/digz61udasYZx9uUgheGNqsDhw4sPq5n/u5OAETEM+NvNzUxb3yf8wwoX/7t3+Lwfg8z0Wkk08+eXX00Uevfu/3fm/1x3/8x6u3vvWtq/ve974xWARhwj7pkz4pjsXwj/qojwpiIPyv/dqvrW5729uu3vCGN6xuf/vbx/km+GVf9mWrv//7v4/j//Zv/zbG43ru6f7G7DqI8LVf+7Wryy+/fHXUUUetvuiLvmj1y7/8yzFm32GsMZuHuR977LGrW9/61sFEQvWHf/iHMbeP/uiPjrG6PuaccMIJq3e84x3xv2u5tzF8yqd8yuqmN71pEN18jIEAGium+f+HfuiH4h59CJ/gos9//vNXZ5111ppriItILvLmN785BsumIyr4/Ja3vGX8nebEC1zDRL0bFEkiGQiCmP7Pl88MlsQior9NkDQnwTCTTzEZhPP6nM/5nBiXMficT/qFX/iFOBdc1/k08vd///dDy4zHZxhgXB//8R8fx6XJ8n97XP43N0IAtOsTP/ET41o+NzbvBAfRCcxf/MVfxOeve93r4nxMpK3nn3/+6tRTT43rdLFmwo/+6I+uzjjjjJCKb//2bw9JwwwTJEXMx9d8zdeEtLiwm/v+kz/5k4MhXiQIETGPGpIU6mzi1N3kfJ/EzXemwSQwyHV/8Rd/MbSGJLqua2G+sfj+3e9+d2jFK1/5yhAM92Nirr/++jj+d3/3d0M6mRQMNBeEc3/fOx9hUzKNEVNcoz0uRMRUEg6uaU4Ekua5FoZioOON098+f/WrXx2C5V4vfelLQxu/7/u+L65zCHaY0Fx66aVNmXRTONaUG/j4IBRCxXFQBtYUKWyKdMb/UAbTFO3Z+W/7cG/Xd++9RNHOje6JTsVUNccff/zOJ4fiqB1ehPnxImnUtgsSQJqAqt75zncO6U447y1vecvOf9tHGWtIpPe9BCuxyT2d6xo0hcb1IZiAuF/wBV8Q6si8LAFV/OIv/uKd//pBNZeGoMZofARgm2CqmMEa0GPpPTGAeTJ2jp2Z6sP66myclxOXcN6N+jSoDfaVU10C10cM71ORURtJrCF9Vw3uN+eeXQhhzVlgIerrQzABcd70pjdFPC9CGRr0JhDDT8map0CIi8g1ECTBBAfM6bZhfnkuMzEmPEuBeZw7DRA8iOAENl2sNcHBQD0xZTdAkmsqORcmNWQmEED4iumirDZIZkY8uw35jhDVWAmhBDDBVBGWmIUDPv/zPz8GLvzchAnOZftJmr/TxG0bObEaBAo100f6xfs1/NZv/dY6NwCatJQmTJ3QWBAj9E3Thia02XVjFtRTRgv3vve9N1JPqb+4+KqrrlpdeeWVqx/8wR8MqTMpN9025B195lNJglb3AfMQpIYsWSRe85rXrF772tfu/DcPLAymu17b92CGPIVlCCb4QCKSKrOJyZB9/s7v/M7qu7/7u1ff+Z3fufqVX/mVCH0lVs94xjPC53RBKvLl/D7NaR/TfqVK5yshe2WDl6DtJ1z/BS94weonf/InQ2oJE02fCgksYWARapq7/lRZQdaqZjIVJk0K245OOeGHf/iHg/NssSzR3w94wAMivf+BH/iBGFDCJAUFSg7XXnvt6kd+5EdCitsEZVp+9Vd/NfIQ2vSc5zxn9fjHP361f//+IIr7Oz5LKtvEz//8z4cgKVkQpq/8yq9cPetZz9r5dhzKL5hKY7sBQmLNBBJKXVQq++AiiGiy6iNia8T8sz/7s7h4SgdzRGKUGNhCDCABpPJud7tbfJ9McI3zzjtvddJJJ61OOeWU1Td90zfFpM8+++y4RzLCPZ73vOfFsWowSiy07bnPfe7qSU96UjCPNm8r8kqYh2uzDPe73/3iHnwRok4FmirvoF9b+NpYMwHHSBT73WdjVQkzymC6DIYUi1LciBkDCRV7+1Vf9VUxWGVhUuz1Uz/1U6sHPvCBcS64jziaFl522WVBVBqDEd/yLd8S1wdOzf/3uMc9Vq961auC8EzERRddFN9/27d9WyRDQ456CWgd3/agBz0o7Lfrc+h3uctddo4YBwtBW52nltSHGDUOO1BkhGh9HENYdtKxJMN7miCDI/Xg3XekyDsnzYykGUJwnwPG8xOue8c73nH1pV/6pUFoENmkMLi3jJ5mKOxhlP+tT3zHd3xHHNPnazYFBiQBzZVZNFf+jUZLwGrSnTBXZszxtbB4LTqk3KS9D0UOCRfnQ1KquyBFzJS6/oknnhjS+sQnPnF16aWXxsSAiqp4YsBv/MZvrK677rqYFEaqTbXVHgPU8mW4mAfGgCiIoYIKjlOV9cKY3/7t3169/vWvD1Nq4WkqJHovfOELQxtVdZlDmsrJqiqrNKs6819DIGDp5JnoPqw1AfGpC/u1qVqTGNEJJ0ZaXfee97xnMIOGCIe9W0QSdTzsYQ8Lf+F4Ep5rCalpkEz3HYICQvEP6jtf/dVfHZ8BiSPFZ555ZtTwmTJRV5+ZrYF5/a7v+q7V6aefHv6AOULEP/iDPwiiqi5gNAkfQloQYyIsfQhqkx5mAgEkbZvAREU74mqEJtmkyTuikXwSiahiaPUUxxkou37gwIHQkB//8R8PiUt1d7zjEP3FL35xSP5P//RPh5RiIuHJ40z4ggsuWL385S+PxCudaWrQFBDEhz70oWFGBQQPechDYg3DOL/hG74htOJFL3pRLG0OAZOY78/93M+takIkBAhHbRGIei2tpILlQQRM00J9lQ/8jSAiIhJtkp/3eZ8XlVfO2nKoiAehqTqJe9rTnhaCIbJCXAEALbvmmmuCeczN8ccfH6aurb2f9VmfFVEes4doGamRXoyYqunuiYCCEqAdBMf1BCBT8ikhOz+HtjQBM7qIqxgUSRJmGugmEE7++q//emgXE0f6OVnEY5Ke8IQnrEveQsof+7EfW/3sz/5sxOImJlR98IMfHCGqjDv9AoKYPOIKU31O4mlwV8L5DbG8a2AC4iGkJUfOP6O8MRAopjT9nvFJQPmrKQwAAkOjmWeNEb0oxIqVoxLFNIXLTVFvHy1GMSVNIWhTJLV529ve1rzrXe9qikrGe2FGrJB5teH/Yv+bYrbWq1g+87f3koQ1RSuaYg6aEh43xU43JdxtilnrvV4fSpDQFKbEsYW4k87J+yf83f1sDEW7m8K85uijjz5oJbKNtU+g2lRtqLA1BaQVx+9617vGu2RNXuGdkyLRXm34n7kgXWkqfOZv7zTUYr3wVNuJ8Yq+CjF6r9cHmkOLHMscTkHeP+Fvnwnl01eNgQlyPL+Yec8hwAncLY40NOHyyy8PaS6q7quD4LgSIzfFtOx8cihKFBLnbxM0qEREsc7t5f7e50jkpnAvYzCWkvc0hbA73wyjBBr6upoSqsd6dR9C7EiUEI794+3ZQK/yfXj3QvxgGCmQCQ/ZVPZ4jja5h9cQaBC7zzF7ub/3KRqwTQiZ0UrnxFRtMlZaLurkn/qwZoIaiZswSSadDtGJvs+YPc1FDZxlO74fgwhGvN0HzHHvbcC1CNMYw2vAcEEA5s8BJjBdwvZaiBoUdQP22MHtSl/eWGSTCdIYnDNnokK4mmYZS21NYAnaRcHdhDwnrQemEVz+gHD3IZhAcsXwThROdsEUTDExrpMOdioQJQmTf+f/aYa2hXbdajfRtgSkX6Lns5xXF8EE/kD9BqFlrV3g5JgZAjfpY+IQJG+pfUxPe8EEQ+eqfw2Iz8/tBRNEg8YOfIc5PeIRjxhmAmmzaEFScjWKGVD9mwP+wwCWTtR5pB9T5viVIxnmkvWmmiDHp6RNRim1zpIwNRozK5g0pzLZBwKQDssgaSP/MzUOP9JBqKxHyLZrCCbwBXxC2zFT3ZojSbTt9zaRbenvD1CTUy5B16RtF2v9yOiHT0jPPgaMkhd8EHXo3GAxrIvzvX1YM4HkKS0oNO2F8/pAgeIhc+s5Cf6yD8EERJec4RgtmBIJTQVzpaz9gQq05PdoQa12tKY2JjBJfb2Sm6Kvhv6BAtUApSAFx1zW7SKYIBzEMSULT7ZsE7Ss1kbzgQDBDdrKh/jQPqzNkXKrFalcJvwgtoMsZSv61ToCj5LhSiRkzIpv6kQfRD/4zLn0UQXQIjNUiDwqnYX1Xhnz+0umuhtQfrBcOwcEnEnSTVItW8iUmSNrw0KpzF6PFBAS9vRIAFM9N8hQ/hFx6g6pVQHWjlmLiqy59nAbUKla7X+34J61TPPGALkBTdD8UCtuBhNMlD+QWHRL1tJufaRUiU30fO5eQui8SQsOKTycTFRFNQdP7GRltYtgArul0Ykp8ncbPsu+G4U+C/ht2+ZvTKzZuyE4p/3K63ghnv+901Tv+RkTlccjsO99ppjo3XHeLa4oSLLjeYwXbWYavLtOF45xfN6DdfAZpyzeJ9HOz3dj8J3rEdT83N8+E6LqvaqV5eOJfn/YokA3g55LzUr6j8S1yhm5ZIlBVqfUQ1QFDcx3ekSFt5ATxXU3dw1EaS9jKo/4PmvtJkBlnUfqMf5tb3tb3E+m6Tyf+T6rvXpcTVYbJZi05xNyjdw1+TljNUaBh2shmAZlnd60XH8sEuS4vdxbkOIc93jJS14S0SPf5Bx+Iau9xovJaOAc55ufMRgnM48Z2v01P/dhva2ClsJHPvKRIensmAlkmdlNkqMcDQelgcsNNfL6zLGukxKnsOdc1zJx/afZ/ph7YiBolq1TAzFdCR1zHIsImOhv1weT0kjmfx2DGOyYLozX/Y1PwigZNa9MnDBKc0NqjrHn+I2dkHjPZgeS7N24CY05Gjfmu1bOgYBhrJfk17Pb+mKzlb+LNRPEsqTLTQ0QhxEPgQweAU3KoN3QcWxdSqvJOs/gklEYh0mSFITHCN/RGkwjOSSLtCqX6EhABM8nYLLjMUSnHsJkX6f9NxA/q5KY4m9j9jcpN3YSiQAkW+edhSvjNQfj9ALmRgumceZzZNosWQbPIhgH0+ZZDHNnBcxNyR3tnI8W3tFIYub/X/qlXwqhevSjHx2NyZ5CIkxdrJlgWxoHP/zhD48u5Dvc4Q5rU2AyJNYE3MjgDcQNvQyMVLix/xEg/QiiYJjB+PuNb3xjENGEXJuWUW/qTGpIvkAAIX3nnphFutIkYiC4FzCdiIQoTA+GExomgw2/5JJL4imgXFgx/jwXXJeEu7bv3AuxUvtomoaEPgK2YeyON19aQHBkzLrCaZHm4jTbBwETygCiqatIc3PFFVes2xHzVS68fhVCxvdT4XjngfdC+N4NTJaiPbY+uFex+03RnJ1P5sF1C3Gr1x+CczSKFc1oHvjAB8Z1+hDigMPMDnNCA6hjSrlXSoUXLvu+DyIRWtCGz8p94m/nkwgSty20x9YHTb1pJuYCTYB21K4/BPOmCbSUFUjz18V6ZG5ILZcMNsFmd5nABCyZQBtMhUlQ97kwJ8KVJmwOPPuw5J4JTJAA83fGXzRj55uDERR3cC7w1w6cAs8SdNsDac2mTFCFtBUbv9EGP8WvdIFp+blAgL+qae8Q+EZ+bikItDZ//lHQYFx9WDOBEzHQuUxwPAeeJsf/+fe2IDpTAOOs20hT2YUQVNshYBwTytnWYO6cb3fcTInvfL5kTsaWzt7+frUxBBMczFaLLLyGYDBdjoqOcpB6bJilbcJEMAIx2yDhfVkobbzXve4Vf3tnUtK+94HwZeTUhohIlKVbgklBGwI3R1BFeOhlDjVTv/7UBIV4QschkDLPCpgUEya+Roi8gckg2FxwXia6iTnsA0kWwg7ZdkLI7LS1yjhk1pIsuwcYm2qC7HmOn1AzEp73mc3EWhNklF//9V+/zmZrsP2Bx5s8vLdv3744x06StpyUGGWW3Qcaw1FipPeE/z2P7Ml+ydsS1a/BPTGY0CCswGHK9UmwR2RVEJgS7x6Tkkhy2DX73gVT5EWjajiICZKksf0hFPq+4iu+Is5hM/1P5WW1YxGICIFkkor2JFxHdVZmu3R7thrUujhn98V4DJkCdHCerNmTmsyJZzNohac2BQtTgAHOHdUEEqKA5wE3pmYInAsnifgk5LTTTouSwHHHHRelC2A3+x5AVC5gukQKGTOTSg8NuoZs0ljaZmEJTBjDXZvJREw1I7Y/xzgGtSnFN2UMdSwmiOAwt7SERmHsmPnEePcd1QTIYlU3xKwBMzgsT8vzBwZk4sC+9jlMxG2/wCRIK2Y+9alPnazmQ3ANk8cElUxjxXT3RJC8dw3OQwvlGsRDE8y8+uqrwxRbd2HnMXfI4YP7Z55Qw5oJJEQ8O+aYEwjvRSrApJPbNSb0QcRh6Y96K7AJFTNnWQIEzOTM+LznsmQf8QkBYZJzJBQzES2lX/Ch/sNk+psFEHxkIbAG55obnzekMWsmsMfsperkFJAuti6fZyA5qerMARVGkCH4XpUVgai9Hbbs9oIoS5FRW4IUm5PNn/rGgzH8IQ1J2BMbI3MfJmbJtg2e5BdACEhy/hkV9sH9MBNtbC9Rw/oKJJn0qh2NEQ/cXHXTdm1dtAlBApiqK664ItSyfW121ZY5pOXpT396VHJpBmmj6nPh2ojDVCRENO5Dw2rSSADa54A52Ckec0RJGIA2Hgs27yk0MhYMpTV9yWAimIBIygLMiAMRqw8mQUUdgwk4TN1Jfjt2xszMFTxZr5zB5ouqcm9Q1yBJHLxJelLesfbjtm+ewlseJ8wcUueEYIAJyDI6GKNrZDm8C5rg87apcjyNtI6gHI4eyuF6apXErcax9WNwTTQ1foJVm8NaExDRCQhTa1tkYqgjKc+1VvsjkeCf+ImfWBPONdhLYOJk0bJb31vYcJ5rHThwIJiCUGwrhjoXUy2IME/+Zq+nMMGk28QkXOmkxyoBbdAcEZucxfZxF154YWxsIjQl0UyoaGsMmMkM0h4Woz22NoIJvuS8SCyite1jGwhBQmw/Y2MPdtNmIn4s4nu+53viO6AltMF1LRQJSREBUTAPYSV39spjdthNxHd9ZWcaQwrt8uVYmXyfFHfB/rcdJeJjMpNEGhG3C2anG+EYu0jN+JhRy5KWf+04xmnbSGvqVm9Cf2NIevSicCsWbkoG3JRsOZ5AtweEz7ooxGr279/fXHvttbEXRpGK5o1vfGNTJCb2xChasXPk+1Am3hTmMobxes5znhOLHUUTmne84x1xTGFQ7AQAJXFrivTEezEDGy8AFeFojj322KYwtfdaxYRNfjp/CezCb94lugpa9GHNhCLNTTELzctf/vLYFqGPCUtQpLEpcXVTtKF5xjOe0RRN2PnmfSja0LuNwzZQpLgp8f6a4W2Yo883ZXQXNkQhaFC0uSka2px33nlVmoY5Ku8R77PJysWc0VDoNQdUUF3e3kX3uc99woR1ITfhOHcD/A2z1DU5YGwW96eYujlol9z5QrQ0hhpN10zg/KTkOh+2CRP93u/93tXXfd3XRbmj2+G3mzAvvib7gLowNsHItgSOT1Pcc720/+piEtHRjBmXeH2OsysVHKVIZgr6QkmDEW2lROTg9gLGohxN2tvl9RS6Yh52PtkOzE2rTpup6mHmLsCoIY4WDTEHOJZliMQcwonTMfRIAEJbXEIA0Ul3aRRRugKzKdApyyWAyaIj96o9IAJxtAF7CU+VL9oQXmbMPwamBiNd63DDGAgUocj8pw1FuFoovi1ghnCbJRiq3gYTcIzZkWl2dzfE3dQEx/XF2olMuOaANLrmthmHALrn1I2YiPZiVc4p57VbcH0mmkbquqghmMAPkAyZLEdSAztKvZJg3tu2jmSJRsYm57z2NQhA/r9tcMgCDtqw1zAngimJlKTW5rjWBKpLKoecFb+hGphE5siZr7m2Vck7ywgEQLbedmbbhMJcZsve9xoCA35JeF5DzJwES8P1gmoHHwJusrMIj4AWsq3G0aIhBrYhhTcwyOu1pcTfVueGwrqp0NKuJF3bA3wIjufQMY9ZI3BD5rgP5koQaEMNwQRSyBwp6fa1frQhArK9stqOiRmcgdqNVxQyBZwkxiM0R65eT6uYNmvMKo6qlepLPl+KvCbfwCfMyVEIgiLiYx7zmEg07XhvfwrmmHRPKbWzGEJjJt72dm3T3UaEB2yyKiEzodI5pA0GYw2AJDMp4mAvpXBSJyGbkoGqQtqLGqFkzJoFmETj8K6CSrN8341s+pCa1PZHpFY11PlTI7wEzVa0Q3TjE7BY9Odb7EhsfUF33Rg4ZHQ1X9fsrltAaALnRUpItKRtCJb21P1tpazFXTZqI3KfPfaxjx11yiSfmmPck5/85HigzsMp1FazlckpIZvgU57ylDBJU8wIJnSbzgiK8bpG29xNAQEgZLaQ9tM0xmhRxxiF7VOXYDNTp/U1rQ4m4A5iMklDSQVYiuRkTE4k5MLUPXeIn+NgMZ6zV3NPf4JgFkwwi2Yh7FRb3rfeS3KVwvvKFkNwLTG+pcy8LkYylUwwRkxBSj5NqpnDoBjpNUivmgNBpPY6rYGRtJqdq8FAclIYSPMsmpB+i0MHDhyIYwgEs8Y0TiEg5neLgBy+BRjaxuTOARP2jd/4jSFwojdmyRKsBz3MeeoeIDl2NK6Z1TUTcMxAa0kF4rNpCZN2A5rRXk6cA4NyHdLPz1jWZMONhW8xLt+PmbganMtsEBZaOxfOZ88JoPqZ1hz/E9Spwoc2xj8U6QUTEDidINvVB9GMlbckiOMz201gYtd0uDbbavDUuA2mwiD5Bj6GD7j44ouDAQiwKVzDtfgbREstngLHigC///u/PywA08TvWXEjPJ4alYANwTWE/qLOoRwlZmqASrBKDlN/tAczHMu0pFQgaJd4JEAUZPnTI6TC2gRzg7nOE0LasE8pnTBg6NwksA866VIj5jABCATt1BJpnujDvxAoTW9D0g3GT7PNc5QJwNQY7BQJdEEvThOxqKoGJ5Psmg6tlY7JvILNd5wXCXMNXW2u5zMOWbir0cpkN4Vwl9YKPOaYNceihXlZ60ZwL0ED/8VndRsijJ8Aec//MSufJs3PuwiKk8a07WNrB8yVJzBpjjYQjVo6LYRwttXvnq85zID1qpIoDo7DZLb09ZBQSZGODJ9x1MYj8cOcqZFRDZqcOVF+Zg4TQPuNTgm5kbk9+9nPjqTU50xne40CMIDfSNAATp1AYaB592Et9iSQVI6prc4DPfs6lZkhJVrZIGkx4a7a6WQ2Ca0jBkIiDJZ0upe422O78gbEN1C5gsonLRpT+THQcNcYmlMNfkqMScIIGsVUalzWI8XMdcFX0Lg2+FE+KQWvF2Vw8VhrifubklU2xRQMPi562WWXNWVw0RjgWB0RJRuMLo2rrroquhfaKCalKTEyCsSrZJsHLaxb4O+eUwSiKZOOjov2sUMwZvPowgL7KaecEuM4HCjhd1OEqynOufpLIsGEIp1NkdimOJ3mTW96U3xRA6K8/e1vX7eojKGYmfhxjCINzVlnndUUm7rzzXZhXK95zWt2/nsfdHiUXCME5XCgRFFNMfPR8VHylZ1PD0aYI+rKCWZD8JBDpHJCrqyCjkFB0E9j8SPPfOYzo/N6N8CU5XNqbfAHqgC1RAkKHWZtyjsHaMokCscFKH0IJkhkEIvtYtNVSrcFDvFlL3tZbHrr+rsFTrdv4QaBBR21kgE4BoGWMsF5OvO669gg2DE2ZR7C2Id1dGSQmGHAY+XsOTCAbv4gfjbx3YZ7IFAtKkkYm1bJLKcsQc6zC1rAIYsqB6MjFyCxohavKbnCJhCOUtOEiKmdmCGeSK0bac1FMlqsP5ZzoMFSCEUVMPuKekwh5kj0+pgEa2rTAgdu+rOPUyCsxfSEULUrJSSHBG0ChLU+Qhs2kfIpcP2u8BICY8gwuYY4yyDVdxCiLZG7BdXOdkFNyaJNJAMXkw/Z8SlwHQFB/r3XwAQrcKzLkCYGE3BKwqV+v6TaCJbw2s99HSkwJwyoEQGhFOLGzNUSuC/rQkNGNSGlRKlAdrsEIp8lvoRvaFditw3rASKfIecsy52yZjEEgqzkkn4I/E0ws4BXszJrJqRPsM//EoiopuYOCYNiClMIdgMKaMZmbn1wb8JTGwMiyp0IqLoQJ98H5rS70OOa8pMsxzBLfYjt19SALF5burNFQu0pFI7Soo+L4rILGxRJ5kjFwop1U8AHKQIq6uVqnuvwBWO/ajgH1ilUPj1d0y24DYGAsOc6LBQlrUuYr/Ye686Wcqdoj6c/rb1bIbQG0RchhSbgIsJzhO12wS4w69xzz40auwKeZ3vPOeeceGRq//79B1UQxyAhVLI2SI8l8SnZTuO5NsuS2wChEBLPtfmO1+pCSDzceP/73z9Mm+uhwdTxCQyYKnlITYtIdDxNc8kll0RxraiMj3pRLta86EUvikLU9ddf39zqVrdqHvOYx6wfl/LETQ1Fsg4qDLpP8QdNIXhTGBqPT6lHFU1sbnvb2zZnnnnmzpGbwaNdd73rXePRriHk+HKMxuIRp3zqxty9m7ufJL7yyivjuDG89rWvjb0Fn/e85w3vgVcuHg1N1Kt8FszpA43RDGWRQqyv/G0jW7mF5b+h3QCosgQswaQxD0oN0n32k/PSVkLalLi3AabEOMdyDvPmwNEC+DdLmyyEsWUIzRzPWaWjMeaORu0wvI1gAnVRwPKk4pRHQwHxeH0mago4v66dNzlO06IQe8nMMW8IR/WTIJuAY7UkORY0GAsh9N6GMfBfWiCvuuqq1aWXXhrCZuudKTBnNCJoNcYFExDIAW44xXk5lqc34Km2FsO6EYrzpfUiM/6AhHkhnAWdvoLYXHCEFozGJNdYMqYHxxNONl0rjpU07S6WNC30TA1AMNbcaX5NYNeaIILQoDQ11rdeLAEZSkLaMKk+QtAoCZUuPg0BfrOfE5SvjDWiTQGpFeWY4xwInS3d2mSKObN7skYFThmdEHUKaAIaSYZr5wTFxbI4zAx01bEGy3aKVrXYN2Hy9q5QxqXKXUjy2GKDFWdb1rS8SSiy5LAEtkJgv2mUqG/oSRlzEGK3QSN1iIjghJiYwK7TWr5rbN4JmsDC0PRBn+AgN2U7awd2wQxxtGPxvAIaKZc0YUJXIt2bpPBJvhOq0oJN1zVIHQ2gsWz6kDlK09OGJgNO1XjkGBdccEHsgSdvEJ7TWNcdA6YR7NGyRXIVQcdWoHRGWNQ3MO2F4nwdCAbXV/Jg3nKxRdap6xpEK5I1OYbJnHfeeaHuNu/QkSF5FHktBZutYZmd52OGiEDwumVoUm8x3xg4ZQELrbjmmmtiM0KbjbD1Y3Bt2q7rooYwUulcM5QbsncIyb7JcjVrsbmYQpL6VF44a38Lnc1CNdoG7sNMCUX37dsXkmfipEaSpLFsTobbBeYjAHOAgIp0QyapC+MiWEyZcWMiYSWIHKx5Dz34kSDUmNC3JdEa5aJNkZSmZHRNyQx7Oxba0AlRopbY/6KYo6aYkaZIc1OkpXfLhDL4pjCLLWiOOeaY6M6A4vgiWSvmKBKjYq6i80LHRplsHLMNPPOZz2xOPfXUQzo69grFHDaFYU0JOqqdI2GOSIq+GtIz5vVxn5TkY6Ek265YIpy+kgcpIOFMEkeendPuRcpIvhheLcZ3akdT1Hwq3Mf9N9GqTeDJIzWxbADrQzBBTYNj7i4zToFJYsxQVKX2ooNNM+2YI7fG7VpFQOK1KYSamtK60c9eAC3lKQRQckcg+xBMICnKDmydQW8TCGoAWgjZ0algh3MTq03AJ3Cowu+9hjmI0AjqkHAHE3CIaVmiCbsFZjGd+CYwN2YSM/YazKocSLjN5GaU2EUwgbQK5TwnVlOZMUiOxopkfcB0EtOFMS0dS4JWW7kTfi5dtt0ENIAvQpehSGrNBIP0WuoUmZoxp94H2kdlt2H/u0AE2sQuT01Ctwl0pQGESYWhhmBCSiO1wbXa4oPjLHL0gcM16bkwwDm+Yg4QwYKOufl7r0GwzI9GysFqCKolA6iO7HLoMdqpNZOpwDgJzW4RCQEOl69zT/Uv9G0/odRFMCFDKAzw0HVNdRDMosuNCQgg6tuUCazD3DCXJtAAZn5IsNea4BGglMglZuVIBSIg4KahN38311+ioy50kRna1gQhqG2AaitZG5kCF1Rubi9ZzgUC8TEiq3Y2qYBnX4vqwvgM8FWbmiO1NWsLS6I1PkmY6r1myoMJuKQbQLVwqsRY9Xrc4x4Xg+uWgbtItaRxCaqtEmvN2it/vEJV1qaFtm7OiutSmAsJ9jOMm4S7BPSss86KoEV5xxOZQ3QyFzRhVazqoS+NqAl4MCEdyBzbyX8oZbvhlCXO7qARR6MZe2liGd6S3KwhmcAmwGh9QoRrk7KFzU6shSOqCrLsH61qyLk6nuAhPrrWGLc2/uzXVCa4mGjK8iNmeA2dZzAcfjuPQGzLhD63/7Z9k0AN30+mkJ6pi+k1uK+XJ4uWZszmqhPFFgvGZO8kGlEjKOjQyOyYFkqEaUItYQwmGCiiTGUCW+3RJz9qxN4qzE1d8G/DOVbPTIq0CuOYOVKrSjt1E48aTFrnG4IsSUL5KV2JND43HLdQZNG/9qxBF/ymarGx1AKe+BTxOQ+cHnPMvlcMsxxJUu3+O/acm3P6rkszEMjzzDaZMjk/Hp0/mVurtUyFLBkTzK/tj6bAeHUUelzWKh2fktdhgjlZTBoSWt8R0oyQaggmIIZEzUPSNZVp44YbbgjHY2GeRDBHbGVtogYjAuoCoUF4bD2BQ7axEzO3RLO6cH3jo+Vzyxa0kTCYl7KKNhfNYNo0RW6ey2YBhpIw9MidDIYqwsEEamKQmptqCw8JEsIfcKZU1Rqxh62tE/c5P7bT5xrLuuaONDFt1hu0kmgI8GA5m0qC+rRnDpzPlBhDMnwqWAZLufkAiy0gPBwoyjNvvsFiGItQA+HWxIaJQ5q49glMEfUbK0tggDYS0ophD3vYw0LSLHz3OSuq6yl4kqNDWh9Pgq3UCoPg7m+yCl4mtsSEdGFeJNGC1ZhwdSE606isQ8SPV9ACGmBdXUBhProvELkG908mDvmkYALTwsToLBiyXSRL6wqNYb48FouIVB4TXANB2xBZZMKi7d4qF9AIDOKIdWnQFALANHHUkkAMG7K5U0BAmIOhskEfWAerfAiujCNIULLRAkMARVxC6aH8w9glo4KPoS7utSZQHQMmkUOglh7a5vAMyI1IL+dFYrSuUNmEXxw55ZRT1iZPdAGYpa1QgxYpxSC+Rb7CfgrrmLqxRHAMhMqC1aaRFpiDeXuyZ2q0xWwBH1c1r+WL2Pfhjne8Y1MyYP8OokRCTbGJ0VlRbF10TRQpj60WCvHi72JGdo5ummK+mvvf//7uHr8o4jgoUh8/8GDbgZL8NEXdo+tDF4d2cq83v/nNG/+YRonvm7vc5S4H/UiGa2pxXwK0su/GFLiPTg9zv9vd7lbttggmIKxnAkp0svGku8CUorZNUdv4yZj29THLq2hFtNoUrYpXfr6NsTzpSU8KQhCGhHu0/98tuM8Tn/jEYEIxa9VNTsIcyVqtQLHbTMI2wVTptPALs0xTO2Gh0l7yAbaVWfTKz9vHLgVzxB4LKBLuwfTuNtr34e/4uj7ELPmDjKfHfAKw0+0n8ofgmhIe0UV3L6AxFG3YyDEbZ64DbOpbliIDHQwxnz4EE0gcidV6OCVLdfwcKcXYJUuYco+2BA8BsxzfBuGi4QKJOS2Q2wQmEMRHPOIR1chzTUmRi2phTWXaQNQpfZibgpmsDbwLTOhmr8XchgYIhTfp8N4EaV0sFaRp6iKYIDHiC4SNm6j/tjHHL5D6btNtceyRo2DOnCdLt4ks68itaogZslVa3sXS23CGRwpIoIxW76zsfA4II+3ZVChT+ocy9qA4p0GSREc153FjBIHCCExYkqyxEEzaUqSfSh9aK0qumYBjnlqfUkW9MSGfAJpLTESzpsEkLgUmKFu4Ft9G0PsQTOCUVS+FclOiEbbWa1sQQyMUn+T+Xtuy4Xm9bY53KhBfxEkALO7U6kzBBAdRG0QYGiz1tICjiJc/kaLevoRg7iNqUS72lI5fsH3hC18Yv05okcc9jGdTKLnLFTax7Zio8LjkGoiPvkNjWHthasN55UMcfeAzvvVbvzV+EtcKmL9lw4p2CnFz/Amtyx++8Jya3YZVVC3MiyQspmtpx/hNwMzOjfoQjZCkCSNw5qyyS1gtUOV3Y/DYARPPL9UEPJgg+0UUHnxosOJ25WsTE/opY0tC1MwR0gLKVLC11iKsU5uQzUrOP//8qKyq1Xuqx8S7CdhcsMWYMEdASH7mHM6z44DPmBMlcRWAKRk4c2QtRdcIWgkS+hBM0FdDCsckRlaNWJb11NRPPfXU6A+iDbolaMNUKFWrJVkkMVDb9NBCUsYhajFhriwgbQICw+d4TYWqQZZYaCJzaZzmz7yh15SkFqyqEfAh0xpMUFIg5W44praIp6aOUNTL8QZkDyBPak5RU8cwbc6j6kI3mmH99lGPelQQn+RoDrPuvQkQzn3m1I5ILHqIGuVPLAVNJ9m6Qtj3qZqlCmEZlCbVEExAvFxmnGI7raqxdTYFsZBj2fLqq68OtTPwKSChJqW2I3Tbv39/hJPGQHow2obhm5ZHmBDCkkQTWEwlIK30eLAxZfnEu7ExV0OETWTIP+Tbggl8gVUy9l2WODZIjMJhzJNbkF7X8Htpfc7H8dZ5UxoxikaRfov63jGWf9A0YHJeGFtLcKYCE9RtMlnzPsXZG6vgILeC0HnhJ79EcRy057KtMZtXDTQ+C6JD8wgmAJWztEhSal48QXKtu2pTUa/xCC3/YJDdm2EA9cU0WuPvRCaJIgfmjJTZeo155Av0IlmoXwr3Nh/3SQ2VE7HRU2AueqvM1VP8llud6yF4TLJ+bl29BvfPew1qTTkwVr9ucYtbNOeee+5BS5N9cHyJmePB8PZuWiXeb4477rimSMbOJ++FZcRjjz22KT4kfqveb+a3Ycew+93vfrE0WiYdS5xl4LEsWaS4eeUrXxnHFbs++yHzIkxN8SnNCSecENcF4/cag2OM3XLsdddd1xQBi93OShDRlKCkueaaa2IptliOnTMOhWu87GUva4oAxKplDaEJVIrzojpDaXo5PpyMREqEYJ8H3REkQ6LVV/LggGkYSWTqnAuaAYS0tEdnt007tFba3Ny1rIaVSawLX86da5r4HJUAtj1b+NtaMQTHMLe6KkRvHqpker1EchoWBCfMaA0sijZ/ldQhuoYmFII0JdZvzjnnnPeypoJ3v/vdzeMf//jm7ne/e0ipPfD87oItGW5zm9vElghFTXeOfi8KMZujjz46fkOARJx00knxuYV8mmMRvqh8aEqx1/F+r3vdK+5hbTgX5I0zX3NQbHdz3/vedyvbKrh37vc3BbT3CU94QvwuhbXmGmJLTnYah/WV2gKtBj2odmbh2NhybS78gy0DSIcXm9tGuXx0rumyIzUaqvwtAmJTaZ9VL/G30JAjFR56J0FepJJUabchmbWkpw82N5EDZa/UXsLc9U7Zseb0009fFYb0ayEmlEE2Jbyc1PICpD0lnt3V/kKb+kB6/KRKMVVNyYIPaj2ZA76KfZ7jF7TklMAhpLGYtZ1P9w5o45dMaHcJXoY3GCGJpJr9JXFjIO0p8eyu7HJIynLrMg1ecxdXEmwqLaiVg/tQ5hdaM1Q82024P9/JL2qe9n8fggkmljWWJYOlYr1qVuBzrYQeN9LfWTtuN4DhcgRBR40AuwmlEkIt5CbgtfwrmCBywLEpZYsbE8TypJCWd33VXsA9CYFujyEhCCbgmPBvqIx9YwTNVl6QUG1ajV0CplrgIURWGRDM9CGYoCKKW6Rmik/YLdDEbZoNfoRmyzGmlCq2DXNRY2MWmcQaggkGKmRUTMO9wwWrbFOLa1PAHHDM/NDhMLMsjGRUsoq+NQTFqS2V5RvmEoH2OH8bsB47mFnOhIAjy9Lyjb0GxqsGeB+KCoMJpF9yZLWMM5sD1dA5YeMQRGjb1EQMUEpROd3rRA3QRRJMsPpKOomYMXXFBP5griZwNttiwm7A+AjW4TBHiK8KITz1qlVSgwkOJoWWG4cWUTCIk3NB0QabtxSIwpQpNSsgKolwZK6peOe1Df9gXoRsqcN3npKHUrbyg0LegQMHDirJ12COGhfMQ9NCTRAO0gRh6tBgEcsivCqnDLj9HBii+cy6wRSp40fsRW1ByMK5/SLc2+R8pr6UFddNQBNs37A0T1DfMl8tLyIcDtaaulZ/AjkGlWLz4pcIRB/WPoHNwoihwTJXtODKK6+MVbRcNQLne/hPaXuK1DFhMmnaYFUPoQiD+9NMzFha4miDQ859O+aAIHl27slPfnKseXvE1672nuBUHlfGH2tsoNWZrQ81BxykCaRziIAyTz1G6uu42u75x2mMwIQpQOyTTz45nnbX3pIL6yTX9sjbcqaup4o6N+BAQLvMCJtJvlyKpTBeu9uw72MrdIQ7ozKCVTOvB2kCJgyZEtGGrFr7hwvirHOUqkn2vn37wq8g5hQYmOKf8NiETBKxFOpMlmBsAi3pmtpSIueCnzJn/VHmpA3HmC30e73iFa8YvC5Bs/ADwm/X6sNaE0g2UzOWMTuWlKr/W4hXL7cgbo3ao7Ic19Qw03FeVJt/oPraIHV+GIfwdw4IEDOW2kwwMNMK2VyfQLiUPDy7TBjM2/W8I6bOQU/2M6VDSD+AGW3z3caaWjRhSihngqRWdOQ3BJgfEudcg/Sa4hMSziNNsnW7FJMwC//U3YTnwH2NJUED+C51G+ZuDtI6EDjS354TjdUjpQeXMA4hHzpnymsIJlA7qsV+ToGoBYH84oeVKz5Ck5Voycpc2/5iKmJYUxZdte2iiZIUXRX2E9Jy4ylPu724PiLMQZq3ZB6BcD/jmSMYgBYcsLnSzrQQrmOeWl8Ii43aazB3GsC3sTI1BBOoiQGLUGoq0wbCIZCfXtHwhXAcEN+gQ62tTaTFYjfnZjMpUUICE6g6qW+bC5JjKZM93wTMhteYr+sDhmrnQRPRVQoPYmpeZn5tQ0H4asA4HeaaI7K3tQ/BBAxABCHmUBJCommNpmD2GoFJuL4c54uJhXWOS+gbEu1oqpX0WKNOMGuO1cknHk9pxRih6zaYYFyYMObr+sCXCELM+cwzzwyNOOGEE2IvDpGdz2rOFtBVV4Y5YkSNtsEE6mvi7GmbgF1wQhqCdU5rWWQ2bJ120UUXRbWQo+Kc22aEeRAiIjCzgNjgPkJA55EqDh6xHOOZB5JLG+aakTZoGrOyRBOANiC6RwDMSaLGUQvTJWvC1jG/ZQxgHrXgILotEN/FqRzVy47kLpQYSLQBuTjOOodtZJZUYfWPZjQBbi7y0fauJCLl54ARxm/x0CamjPPUrUF6cuNAv0Pj2mMTHcJpp50WQQQbvqSSavwERvBgHOaNOTRgbFwYr4+K3/QAo2jS9czxoHMxodjkphAgfiOySJ+PJqFkodEtVwYYXRBeXZSBxG96lhs3hfiLuy2Wwk/N+L3QomE7n+wdiglsiglrSuYfG7iUSCo6U3zeRuiKuohCE+60o5cxkHiOiVTgrlcf+A9ZsdR/Lx5Cb4Nmk94h272bUC7R4JBRklC1q0HBBGpKddRqtj1YN0R8LebHHXfc2kbOQRGWeC0BwZDLLMmYN4W5i/wEGJlr8Au9TNCOrmqpFnQ4Fj+GYODicj5kCThmAjCl4rltIDbip3/zdx+OMkkOVmsGBgzFvYcLJsD0zUU7LJ1jZreJDAYELrRAntGN1IIJVEY/Kfu1JJTbTZAmJqyrwlOACeanZL6NsvgSZBUiS+ki0W7OclROUmzuhMPRn7Nb4N+0H5qX5O9wQHWBX/KO1kx+N4AJJigTyOzs2G4Z7v0F5oYB3mu5z26CVfFSCkqfxC8YTxvhmKksNfHIUne7mhszqL0yCXN7OIABElwaaRVOAbMPwQThmyyVWVqSVR6pIHUcIXvctcNLwLnPqWcRboT37rm+6nqCA8AByrZDnWKQKpZOzzsmGqCX7/KaY3CskoBeTYTK87z7fEkJugu/ck643GsurBUorSi7KELquPCgh2pwu8mhBmZHicdLGlBbpApNyP2eFaRURYfg5uohF154YRBPtq0VxAKPqqLiXkYCY+B/PLvwkIc8JGpSmIjwHuDWcaE6a/FkqRQLvZ0vS+/a4SlQePSMNuLZSF1HibnyoYRkClILPaFURZE0j0s1t7/97ZvTTjtt9EmY97znPc1TnvKUeEbNU43lJvFcmqdoPBFT0vLenwTuQ1Ht2Lj2Dne4Q3PDDTfE/qhqS7e+9a2j1mR4t7vd7ar7iY6hmILmPve5T3PPe96z+iTREJ773OfGE0zqaYWQMV5jNOciMDtH1eEYNC1WpnnAAx5wSM0oEZpAXamMcrIa0hBEG9RR1ZPUSqJIrGqnlj8Jic+nQE1FhVGiSF2dy4mR2v3790dYqfaTsfZceDjDwlOWDObC2ghJNh5a73oshTHWst820NWcaM1QwBNMEBkpCyCkNdUhGJDYOzsPwACtmPkpFusJU+s0GQjk8a6tgZb5sNiv2MUULDEl4DzX4O+WMIFgahSQ6D396U8PU+uJIyXpKSbS/QmQezO1tTEEE0w0k4gpE3aMi1op0zlnewELMLSDDbXb+hQYlJflT8+zCSd1XLC77Z6mPG4ujJE2SUCXFPAs6OTKGqHz+zg01vPWj3zkI9fPRg9BkmbsmgNqc1hrAueMGFO2yzE5HLYcau8Hy31ugjkkmwpOgYjFShtHp25FGy0uMYvtgpswb0kBzzWUY1RvxzS8D8yr/TYkevZesuOMd4Ki3VMnxxDQCT3UjWhVN1NOBBMQUNRD9awfDwE3MU1eYVD6SC2GA0IJc9vJkeP5CHtVWEvuLni7JylzLRGI31xzHM1K5JrFXDBDCIgYTN8YSHY7oXIO5iGkcZsLE8w8+W4sQiJkxo0JzHVNkGJkiGD5zYVxbAykVyaoVUVY+4IXvCA2BsEY6ivEbOPyyy+PlhYhrNJIwqA4P3seeTYC0ag832S9Gkx8SIqG4ByE6Ktc1lAzGVpbXM+8BQ1K/zRlCBjgZduJ7F/qQzDBlxwNogwNNgfILhoQQuUGfQiI+LSgzXHn2KaGXSX1JDyjJ+ZLNMYUykQdyxfQCCaJlomva4QZA7NoPdvcpjCBE2/7ojb4TQEIHyhfOOecc8IHDoEGEkx+wXMKNW0OJiCazmNqMyRxkhctj+yiUE0rPALzC1rm7dQlZG2XjRFa1IQ52h1loRlZMF0GafKyUYkVghMKq2EYIFpiLpfAdXTAZWvOEqCNdhW9RiI2HSIa5dBqLIjBeGYeTYfoGt9wsrokSDbu1SBmRjSxtz3vSAZ7Td05ViaJDfYkaMJAfZ4ZI+nMuJ+KayfBFNchWZhg7yQ+gu+xyeFSTQDBhlJMWzungNBwvrbUTELqxqalzOUUH2Pugg5zRjfC2Isywdj3wd4Lxb43hbA+6oVsWjZczElkjmVy0W3h70LIyCR9VyRg54z3dlsUDWlufvObN4VRzYUXXrjzzXu/K6FjZLbeXcNn7demOPHEE2M3GeOcAzR57GMfG9n7xRdfHHsbmb8xToXj3V+2XAKOnU8PRbCT9DM1mnKHohDSkD9ZxQfIIEmwv0kGU+S7rppSZy2DsmPJXMJxzuPsaIO/fdZ+bQpO3TjnXst5QlFmSIlft4T5T9GAhHuiDX/I5BZ673xzMOKKDnZTDz4b8LahzGHrNVln1/GZFLNksHOAabVJtcGhTv1xji6YXI6d4C0Buoo8mTZmaZAJqo0ySk5TZ8A2YSDKELSM3+hKpP9Te0jMFMKCsRZztfNfHfpJaRr/MhcEZK70t2FOhCATz0EmiNW9hI8md7hg0FOZQLLGiCOQ4FTzCcrDAUGIBFB2LYDpQ8xCSCmWZY6m1n0SJro0hOxCQjNV6kyuq1VdMEHMgcx2qTRvAvcV+nsfGm+MjEPFBGHcFBVvw/Hs85EIhBc4cIoZFu8lmDJC4N6WN2tjWGuC8oPMVew/By7M7h2JSAGxbnE4mEAD5ClMIb9Q08b4lElR38hyL/My1cRQsTGzcLiQ/kXmPFfDtwWER9faYpmqQTCB2ghR2VAhpPq7SOXGDsJBswUdm5pMYaZXYkoAga66/9C1FhigezCBpCg1OJjEqItIzefCwKZGN1PQ9jeuq/A35/qk0PrIEnPpPkoWui1IsefxPC6locHikzpY31gIcHvMzNCQT1I1DibIkjGAExuCrNrjUh4C9ORL1vyFYHb4tQCizM0W1oCwaRpIqRU1e4byRzkptXetJR5LsigDzlGIy3OnQrYr4ltiMpWsbdmvDG/uGKJoac0DDUQ+XWAcqTcX1gRNCXma+i4ISjDBxFQtXXQoqcEsx5AGS5C5mbhkS/HPYozycy0eBr4mkxfHeWYNI1Qnk8D2j1Dwk2VL8MBEJF7e58BahQS0T2qHgGnpS0Q4Hu+1nOvlESzfe9auC48TE2hAL4LmOCaxhmCCCwpT3bDGMRBBIT6iI2Q+oE3daYgGALusD2kUtcwuP1k0privKEKIzOQYOKIpN1i7WArXYJez43wu+ACMUPNiomkUM21xSi3JmkcNaCqh5GNVJJTSa34pmCBLdqAbDdlPA0IUdsxasHfIG3qOwD4QtVAMEAUTgaRgPmYgEjV2D85K2Eyd55ag28Bg11FeHxpTDTorZLrWEVgKzWrK2xav5FWe3x4CgaLt5qlpAJ36ECOT2rPDFkDGFsQRisliny1rUk8SwUd4xNaNp8KgTMamJJiB6KTFhiNWolReN8lBXBvTl5gjIJSEjfbyCfv27YsuC4XIKcELs2QMNF9htCYI8amDHEByaqFUwoVVFbWSXHfddcFlzEA8rzlqz/Rx4hY8bGmDuXyLH8egZQjo+lPhem1zak7mhoA0fS7Qw1Km6MgavGe2X/ziF8cmKlb8+LMhetFqQoSJQ34ymCCEYu9J4tgyICbQGE9j8gMc0cUXXxwRg066riaQwLSJnGS74djnpNRKHcKz3R7SNnASxCans54CE+0KAQKo4mLoXEhgTzzxxIj67Fbg3YofJ23s+q2GhI5Q0nYaM8oEDLD0ZqAm3wbitZMUcBzzgXjeRS2IhfNdG44JwlfRj3UFA8/r8SPUWsTFoducRGsJLWAWSbD7TzUlmNcOCowJEWjYEBESjm+XyAkcJtIIHSMEyBzRKAudQ5pAy+UTmhi6NGwjmODCiOmkrt3iRH0PBpddd6RLm4pJeumqZkrcrBsF+C0areXq+iaTvT3O12tK4vT8OBfRmSCrcRw2pkw1JcbeHr/xuqZeqjFfl2gLoSDE3PlMv7WmxUdDg650Zm7omQNAFwKUc6shRozT+oGYki4BDQqDgB/glNhIgxLLk3wEE9PLTjlVTrsNZiqTMfdIbclFeBBxmJRJi6nlCuJrJizvvwR8xNSnPzGQNiUjaZXWFlKfGuBXpcxPMimEpik1uI7lAeHsYMBSCNOUycYPLRR7F3/XUJjVFNvYFOlsSsIW2xUUpsWraEK0xhctOWiB3t8+KxNqyqCaRz3qUesfGSrZZfyETMlqmzPOOCN+JuUlL3lJNAwUDWlKhtq86lWvimOXoghMc/bZZ8c1l8D4LfK/5S1vaa644op4mf8UFMvSFB+3bhaoIZiAuH6ByS99FOccXwzBwIo0HzSxNuHb8PnVV18dPfo6LhA6Uexp/NZNsZvxi1VFauNVu9YSXHLJJc1DH/rQWc84uH++EgQNUb1PHZ+5PPvZz24e9KAHNSWq2vn0UITeiVBkdtS23CA0ZAhsHVvYVnGf1SBG5pQ9dsSZJ6i4soTdXXzOF3gNXWsOmD1P8wsn5zxrxrwKFtpOl2nh4FUKpo7POXInJnXoN0SDCWyc7jfZ4VDItQQGzHaqKQnxhkoa2wb/Jr4Xbc1ZtuXEZdkZkCTY9UHb3gNM40vt7VeEfufTgxFMyLhcEta98TaAEbRBOWIvwWl69UVsQ6DhUeffcdAJDhadplgLoEkIb/7qajXEXYSKyhZuOmewRzpMPhO4bc1LJFmT6C7cmxZgGg2qmbFggnhc3C85cpPDASZx2z1PJm+nAqXoqdI7BESkDVOtBaGW2GLakJkPJohlZaySCqWLwwGBQTtRmous2beTIsmn1n2ddENJ1RzUpLkP7olpk5iA+ApV7OcmidEmIDGb+CP2VzTUlniRFkYoP29by6bAnLKtdDRjRngcFi5y0gnlgqGTNwUJEfZtw17TJK317ejL2JVTmCTRzl6DQGRFYJQJGMCBkMT2JJim3d56pyu924S6F1OkZsVcbQu0rl2xJUyI3BUmPkGBkklSuqkhmEBt2S+D5qATSrAuoMDmBm6GMdlGorCVk+P9OXafZ21oDJjvft1Kqb/VfOzBNLYh+BCYA4GGcW0qTAqNFvkVMPNJTnWlDGTkA21hMgf3ZFkwi8YT9D6sNYE/sBTYdjz+ph2kyd8u7IHqM844IwpYdk736BAoAevn9zSLgbalAlNSanyeBDEoHQzOs0Dk+iRKgVB2rWqpCWApjB0RtN4PxelToADpRyysL1hbV5kV0KCLl+UAwpwwFwVKCTCzrrhZbbYuB8d+EkXi43eTFatqKJxu3vCGN0Sd6aY3vWlz4MCB+FVzNaAiJbFHxYMf/ODm4Q9/+EFPxijYFWmPvx3ryRzwpM++fftiHwv7sjrG9+eff35TMtzmrLPOOuSXzotUT96nomhn7Ml6+umnx/4dm0D965hjjonfji6BTNTN1JJqQCvFzhL+xz4gfrnd3PoQmkDySCqTMmRKcFyNJ+04Z2dVjqqRZCpqZUy/UDs7Jo1p5khndmlY1NGhVsYRuUquXTiWHVf36UZrruuYKTBOUZ/l0yV+h91nZoxPKcM6iPkav3ExdzWgVZY/mHDXqY07mIAAQiknssVDEOq5ILPCN8i0+QG20UN1lj4tjg8NsA2+SH5ggByZCTNJzicUGNwGHzW1/mQuCMl0tE3FVBgTc8IRG493Y+o64BoIjIiTgA/5pGACCVRgGusZApNBNIPhGyzEOA9Dpq5eJUiqdWXXwUzVTnG9ARMM37fXpOeCw9clSAswdy4IiLV0zKDNVtOMCTPG4H5oYrXRefxfjXnBBGaBFqghjU3agJJRLoqAnKiBSfqG4Pj2QGiVcgXCk/5nPetZ8W7gdqTn7NrR2lxk1KdfyHWXwFyzpkYraVeNmF2keU+NyuCki2AC84Jb3r2GYFLsnJcoyDPHQja/umEduWt707zwO77fv39/EB1MUBjMZp999tlBdJJLalyfOmPSUhAuWx/YXWyulnYhcqT1xpiMGGIGoRaRmQNfYk+oWjUimEBiEIuTHOOy71NbmCW2EmM8jI64pIWEt1VWqEZjSDpGiNuBGeToSIys1t+e7NfXwyQxUVMX+fuAAMwsvzAF5kabU5DMIVsy5USZF1mksZauDWao4ImuBI1PMpY+P+lewQSQFFHboUk7QcMTOy7mzd8hIxkYYXCaZTVJtTuWxdjaCEkEkyeSAh3MfjjPxNPpuaatcTAa8fy/1C+4pvu5zhSfQHoJRsJqmI1E9ETRAh3nEkibqHi0Vs8VoakJrmshvjyrZlb5rWCCRA23RDVDUYSbPe1pTwtJ97duC10RzA0ppg1CQkuJbQdvEvnsFmaJcIBUGQRCycqpOsK5HgKILISqmLgUtJNd9hpjBNvP7HgHWqQt3tYPYM4YZWshc0DYPLYPfIHjzLOmjRGVloFJZEL6HPzUpz41OswQqwuakA9H4DBzhHAGDlSTn/DAic8N2LHsOnNEa0iFLNvNHa/VhQ9ggkg8M2Q51LHGY1nS7jBtCZ0KDHBdtpjvyu05p8J8vcyDr2JOvAgYrTU3jOgrwfuOMGoaZlb1XtGmXpSDI6OV7RZpbYqT3eqvbpRJNMXxRjZeNKE599xzd755Lwqho73FcV5F2na+2Ryu9+hHPzoyeBnuXsK9VSKOP/746DR5/vOfv/PNoYjNaUmkd9LNdCyRuhpIEWmmCaIo+522weS0W+znSCoYdzsIaMP1mARm1t+bwr28psD9WBgaQ3uyStCHmLH4VWQkpMKEbYO6ah7WvcbOtoHoBsn0ZOg6BxhQLYwVsN+CDj5hUyDqUDTUhXtigvC/r4CYTI1d4zlNYPfm3GQuREfsYx/makACAwUFNXCIIrWxRHIK0idMBS3nG9GU3+tC0GF8MfNivyKE9ME2JKYGZq7P4QPnPhSZ9SGz4DSfCmXdKERO4p5W3jaF6I7Jngqa7f60oG+/PN3srhdMIIX+odrbZoJwFpOBZAxJ7VyIpNo2WqLYHb+uQuF3jmEvIaRljjJf6AMNWTMBl9lujmwuEMIk+5wWydwtAihttB2uCm6Gy0AAJITC3Zrz3k0gfjJCQtsHQhlMMBGxtINrRaYhILL+zT5iq4bOsaNzQHjaTOj+j/BMgboRYuw1mEFCyBfWNv0l9GtviFgGuiRCMXk21/sSyJj5JMiIYQxTTGcmUYSjVjzbTdAEAqgoqkhZQ1CNgxPG4coS05Ga1JbCOVBJzT1GZdcWicZgYrmjQA1MgNoUYsx1+l0ox6AT5hNUEi5krZkZgsSqoIkQVa5Sw1p0VQg5j2xWqsFNOUCDUHIQ34ObMmdK1r7HzBpDu1EMB+sRJHUo+0cgMEYMmRDlAj4g4f7d42kmwUK4Kdo1BIs6yipK8fYGt4zrhzwU9WowfwLg3kxT1S+VAyK9LuFSLGQPLaKXScaCvvLGSSed1Lzuda+L9ByKpMSDECUSiR/9LEyNVx8KA+IBCigMac4888ymONn4wYiSXDWFcM0tb3nLeBpoKpQl3tXZTlTTwp3udKemaFo8FbQExbk3119/ffO4xz2uKQLa3OMe94gSj3fNCddee+3OkYeimMumJL9NYWDz+te/vil5wc43ByOYgPBqOyWcO6S7oQ1MuOiii6LTopif+Dth71NEvNnNbhaPOblmkeidb+sokhVEIgAejSomJh6fwog73/nOO0eNgzAUM7Hz3/tgjPe+972jK2QJ/MIJYiN8yfjj8au3vvWtTXG0wdi+eyZ8p1aGXgS2aMLONwdjHR1RZY5uKGN2nL6i7EMSIrKLzmMv2UAhogUaOYFXDVRVJmvfUaUFDy56sp+J8cC2ro6h0C6hzJ22txuFKZNbeMnwey4KfcIEMdXG5rchjE8fk9xDdXco8hMiM8/MkLkyjV24RzCB7TRQFxRq1mCibJzWPozwJKeL8wFi8TzGqpOL94FTQxiE09il3KuepHSSIaZSsaIe/1S1oztQGDOmPvA1xmKZc2nkBoIG3XYCAb8ZYa6YPxaduSefSZCsl/TB/GJkIhIHiqcNGKFqThVc3BP8JN1Pw+Ow6MGgXGuIcElk18A8mkSL2kzjxDjoAwcOjIaWju2TMPDkkWeRlQ7GNKoPrIIOQYGE6MZ6BGfsV9atv+hGNN8ajI0goSWt6KMLwQ8mKG5RXQQhVf4mqX0QuZB+7eYG5X83QVgMFAqqk9Qkz02FpKnqjiP17eMxCmPstjUmbUMIKSvXFYkNRVo1MGFaHRUdbbquDVIE57Vv374wmxZr2pFeG+6NnoTEDxv1CYu5xsxxzD/UFwMQs1brcKwlOzdmt0mCdVYhnF1ZoEs4BLDiJqwjVRjgOrogTNTxSSTfkUCT8/S8MS0FoSIwElEEmcsI5xgPIdN7a73ZnNWj7PzFP9jXgxXoA5qan/Ndi4Vpa3wimOCipBPXqA2OOakPfIebI6BlSPG6hX29QqqCGEQ78mbeDVKXBR+iRVLRyj3yh+44ZzsEIBqt9OtNWiA5vyHHNwbnMrEYTlj4nz4iDIEmIKI50H7a5RqEw3gRGk36gJ58neMJrXn3maSgNNUnoWrfLuymfXAx7SsW4XVmcFBspZUzJkj3AUdk74u21CGw40m4LdpsQwm0zWKPgVpMp/KYwgkqY5C2oRWpMWhXIX18A+1eUsHVvHDyySeHoPFTfrRDmcWPeRA23YeEuA/urW5EUPUdiSb7hCqYYICiHdKMszVHh7BMhChB1EGCqaeQ1LmyXiEq89KWOJMQARmEd1oHtI20u44dw6iusFSjAIbYVHaTcgPNFEaK5pgkDDW/OSDNxkdYBAk6TLRGMtsYc8EFF1Q1ARO096BHlKzLfHvvX4gVCZqESSYs0aqhaEhTpKApA4kMULIiU5UtFw2Jn4F89atf3ZTw7aAFe8cU5xsL3u7jGm24blHTGIctForDjtemKJoXP2ChNd71N4ExasvX7l4sQSRsxWHvfHsoHG8PjKJ9kcA6voZgggkXiWsK15sizfFFDS6OwN692vD/O9/5zoOySJ8V0xJMKL4kNiVBnL2A0kjRqtjExN/bRNKgBt8pUxQrEcJ92WWXRReLz4rJ3znqvQhzRE3YzVwTHQJ1SrXqqpb/1e+7ds81tUD6pT7bHCzJXpfAOLws7PQ5xE1QNS0tMFNMEp8rhJeroHN3/sEEPkAU4CDZ7DZhoJiL+Bqx2OcuttUN0QfOX85TJHPnk72BeQvbRZIcszGYYx/zggmkhUMkLdmiuG24OSfb5/RFF8LIbUMrDIdo8nvNBKAFqgIiRlrRXnptI5gAPL8DacReY4pqLwEtEBFhfDG9O5/uLYTt7k3Ia1FnMEEiIxmhNmO1mhsTsgrLHGKy/7fBDBLuukJ2uUINEjRd3I6tlYEgPKjaiBMM1BMlsmaQhJFSq0cSLTF3Om4Zo0mZIHUXTxucpbx2yUMp1/eSFtmrAUnwuuYHcUzKy3Vc2z2ZShqa37uO65FwlUxOTu6hydj15SJePpd980Xes+rJQfJB7u+axi0xVAeTzPnbdy996UsjAUVkZkRugBbMi/Vi9JKAWT6VJ7mHz8zf3z6TSxkvM+/eNURXtk4wu6PbgNyF0i+oACJITsDTmWpAuXbg4pI837spInG8zvO9Fw3DFNkrYip1yM7BgJ2DMSaX5tD3zrETJIJI3owR49PGI7zs3rHG4V22rerpeoDgjqHdElKBgfGQTsLj/phgKRVB/Z1EM0dzJ3TKHUyJ5xJUDBzvfGOQPTuPAPNBnDEacsg+M27MU1/zNFMfggluKtuV/eVTNEoJJksKOBYZIoK4sCzZRFxcWq8aqqXDQA3AQBDRoEzUog0Jcz3aZWDOSWAEqeS4bc+MEBiCMb4j2T5LDaUdJN24mVDXMi6ENkbM8r0xI1SOkcZr7XcdwmKMGOTdNc2d9FvEQWwMMBcPkBub8ot5O6f9wiz3TbMnwpTxu5/vVIlVYI2vD8EEBCA9boJYJsBkIKpB+F50YbBJnJyUcgCJI4mOZ7qUJUQ8pMSNmQ6DcR3nO95ESYuB+8y2BcwdCUTY9qSc6/pZNkcQL9cjCMbl3WeubRxeGEhKvZznf0U4xyC2a3uBa/GNGI5J7se8uS4BMDZChE55npf/CZtrswA+ozmun8JhPjmXPgQTdv4OuBHgcB8c7pWD6IImAMIOAWERyiSPdOR8+4BxTJ7VN5pnPgg+B4cw4YOYB8JEy2gubQDCNQbnpCAf+WJ4hIMJxABIMzgFgg7RHxxRTEhTNwdsMqnaFtJ37DYEPsm8I4oJCm3pk6ZCJCJQGAOHP4VZpLMduXVBSJigTcHpCxjgiGKCqGyqOidEcSK4MVjtm0I8IfXQah4tERVuE0esY5YxizrkAogijt8EOc1alDMV27pOG0ecY85oI+N+oe42JpyRSB8wvPb8QBdD1wGmjODMwRHHhCxLYIB4m6mZa6K6kOQNmSIMx+xtGIVkkHtOZcYRxwQrT5nosb+Z/G0C1xkiMIbL8ockfCpkzUynGhtzOgVHHBPaQLx8/qEGx4w5XITJSGSv4LnwsapBYquOmfq5HMnaKwg9hZVLnwqVZ2CiyOzwYLX6f9/qA1GdrSG5AAAAAElFTkSuQmCC;fontSize=20;fontStyle=0" vertex="1" parent="1">
          <mxGeometry x="1360" y="110" width="97" height="289" as="geometry" />
        </mxCell>
        <mxCell id="we2jFcYLo7zp4mPyi02R-20" style="edgeStyle=orthogonalEdgeStyle;rounded=0;orthogonalLoop=1;jettySize=auto;html=1;exitX=0.5;exitY=1;exitDx=0;exitDy=0;entryX=0;entryY=0.5;entryDx=0;entryDy=0;fontSize=20;fontStyle=0" edge="1" parent="1" source="we2jFcYLo7zp4mPyi02R-23" target="we2jFcYLo7zp4mPyi02R-50">
          <mxGeometry relative="1" as="geometry" />
        </mxCell>
        <mxCell id="we2jFcYLo7zp4mPyi02R-21" style="edgeStyle=orthogonalEdgeStyle;rounded=0;orthogonalLoop=1;jettySize=auto;html=1;exitX=0.5;exitY=0;exitDx=0;exitDy=0;entryX=0;entryY=0.25;entryDx=0;entryDy=0;fontSize=20;fontStyle=0" edge="1" parent="1" source="we2jFcYLo7zp4mPyi02R-23" target="we2jFcYLo7zp4mPyi02R-31">
          <mxGeometry relative="1" as="geometry" />
        </mxCell>
        <mxCell id="we2jFcYLo7zp4mPyi02R-22" style="edgeStyle=orthogonalEdgeStyle;rounded=0;orthogonalLoop=1;jettySize=auto;html=1;exitX=1;exitY=0.25;exitDx=0;exitDy=0;entryX=0;entryY=0.25;entryDx=0;entryDy=0;fontSize=20;fontStyle=0" edge="1" parent="1" source="we2jFcYLo7zp4mPyi02R-23" target="we2jFcYLo7zp4mPyi02R-45">
          <mxGeometry relative="1" as="geometry" />
        </mxCell>
        <mxCell id="we2jFcYLo7zp4mPyi02R-23" value="Начало" style="swimlane;fontStyle=0;align=center;verticalAlign=top;childLayout=stackLayout;horizontal=1;startSize=26;horizontalStack=0;resizeParent=1;resizeParentMax=0;resizeLast=0;collapsible=1;marginBottom=0;whiteSpace=wrap;html=1;fontSize=20;" vertex="1" parent="1">
          <mxGeometry x="230" y="320" width="160" height="60" as="geometry" />
        </mxCell>
        <mxCell id="we2jFcYLo7zp4mPyi02R-24" value="0" style="text;strokeColor=none;fillColor=none;align=left;verticalAlign=top;spacingLeft=4;spacingRight=4;overflow=hidden;rotatable=0;points=[[0,0.5],[1,0.5]];portConstraint=eastwest;whiteSpace=wrap;html=1;fontSize=20;fontStyle=0" vertex="1" parent="we2jFcYLo7zp4mPyi02R-23">
          <mxGeometry y="26" width="160" height="26" as="geometry" />
        </mxCell>
        <mxCell id="we2jFcYLo7zp4mPyi02R-25" value="" style="line;strokeWidth=1;fillColor=none;align=left;verticalAlign=middle;spacingTop=-1;spacingLeft=3;spacingRight=3;rotatable=0;labelPosition=right;points=[];portConstraint=eastwest;strokeColor=inherit;fontSize=20;fontStyle=0" vertex="1" parent="we2jFcYLo7zp4mPyi02R-23">
          <mxGeometry y="52" width="160" height="8" as="geometry" />
        </mxCell>
        <mxCell id="we2jFcYLo7zp4mPyi02R-26" style="edgeStyle=orthogonalEdgeStyle;rounded=0;orthogonalLoop=1;jettySize=auto;html=1;exitX=1;exitY=0.25;exitDx=0;exitDy=0;entryX=0;entryY=0.25;entryDx=0;entryDy=0;fontSize=20;fontStyle=0" edge="1" parent="1" source="we2jFcYLo7zp4mPyi02R-27" target="we2jFcYLo7zp4mPyi02R-35">
          <mxGeometry relative="1" as="geometry" />
        </mxCell>
        <mxCell id="we2jFcYLo7zp4mPyi02R-27" value="A, H" style="swimlane;fontStyle=0;align=center;verticalAlign=top;childLayout=stackLayout;horizontal=1;startSize=26;horizontalStack=0;resizeParent=1;resizeParentMax=0;resizeLast=0;collapsible=1;marginBottom=0;whiteSpace=wrap;html=1;fontSize=20;" vertex="1" parent="1">
          <mxGeometry x="794" y="170" width="160" height="60" as="geometry" />
        </mxCell>
        <mxCell id="we2jFcYLo7zp4mPyi02R-28" value="4" style="text;strokeColor=none;fillColor=none;align=left;verticalAlign=top;spacingLeft=4;spacingRight=4;overflow=hidden;rotatable=0;points=[[0,0.5],[1,0.5]];portConstraint=eastwest;whiteSpace=wrap;html=1;fontSize=20;fontStyle=0" vertex="1" parent="we2jFcYLo7zp4mPyi02R-27">
          <mxGeometry y="26" width="160" height="26" as="geometry" />
        </mxCell>
        <mxCell id="we2jFcYLo7zp4mPyi02R-29" value="" style="line;strokeWidth=1;fillColor=none;align=left;verticalAlign=middle;spacingTop=-1;spacingLeft=3;spacingRight=3;rotatable=0;labelPosition=right;points=[];portConstraint=eastwest;strokeColor=inherit;fontSize=20;fontStyle=0" vertex="1" parent="we2jFcYLo7zp4mPyi02R-27">
          <mxGeometry y="52" width="160" height="8" as="geometry" />
        </mxCell>
        <mxCell id="we2jFcYLo7zp4mPyi02R-30" style="edgeStyle=orthogonalEdgeStyle;rounded=0;orthogonalLoop=1;jettySize=auto;html=1;exitX=1;exitY=0.25;exitDx=0;exitDy=0;entryX=0;entryY=0.25;entryDx=0;entryDy=0;fontSize=20;fontStyle=0" edge="1" parent="1" source="we2jFcYLo7zp4mPyi02R-31" target="we2jFcYLo7zp4mPyi02R-27">
          <mxGeometry relative="1" as="geometry" />
        </mxCell>
        <mxCell id="we2jFcYLo7zp4mPyi02R-31" value="I, A" style="swimlane;fontStyle=0;align=center;verticalAlign=top;childLayout=stackLayout;horizontal=1;startSize=26;horizontalStack=0;resizeParent=1;resizeParentMax=0;resizeLast=0;collapsible=1;marginBottom=0;whiteSpace=wrap;html=1;fontSize=20;" vertex="1" parent="1">
          <mxGeometry x="490" y="174" width="160" height="56" as="geometry" />
        </mxCell>
        <mxCell id="we2jFcYLo7zp4mPyi02R-32" value="2" style="text;strokeColor=none;fillColor=none;align=left;verticalAlign=top;spacingLeft=4;spacingRight=4;overflow=hidden;rotatable=0;points=[[0,0.5],[1,0.5]];portConstraint=eastwest;whiteSpace=wrap;html=1;fontSize=20;fontStyle=0" vertex="1" parent="we2jFcYLo7zp4mPyi02R-31">
          <mxGeometry y="26" width="160" height="22" as="geometry" />
        </mxCell>
        <mxCell id="we2jFcYLo7zp4mPyi02R-33" value="" style="line;strokeWidth=1;fillColor=none;align=left;verticalAlign=middle;spacingTop=-1;spacingLeft=3;spacingRight=3;rotatable=0;labelPosition=right;points=[];portConstraint=eastwest;strokeColor=inherit;fontSize=20;fontStyle=0" vertex="1" parent="we2jFcYLo7zp4mPyi02R-31">
          <mxGeometry y="48" width="160" height="8" as="geometry" />
        </mxCell>
        <mxCell id="we2jFcYLo7zp4mPyi02R-34" style="edgeStyle=orthogonalEdgeStyle;rounded=0;orthogonalLoop=1;jettySize=auto;html=1;exitX=1;exitY=0.25;exitDx=0;exitDy=0;entryX=0;entryY=0.25;entryDx=0;entryDy=0;fontSize=20;fontStyle=0" edge="1" parent="1" source="we2jFcYLo7zp4mPyi02R-35" target="we2jFcYLo7zp4mPyi02R-52">
          <mxGeometry relative="1" as="geometry" />
        </mxCell>
        <mxCell id="we2jFcYLo7zp4mPyi02R-35" value="H, M" style="swimlane;fontStyle=0;align=center;verticalAlign=top;childLayout=stackLayout;horizontal=1;startSize=26;horizontalStack=0;resizeParent=1;resizeParentMax=0;resizeLast=0;collapsible=1;marginBottom=0;whiteSpace=wrap;html=1;fontSize=20;" vertex="1" parent="1">
          <mxGeometry x="1110" y="318" width="160" height="76" as="geometry" />
        </mxCell>
        <mxCell id="we2jFcYLo7zp4mPyi02R-36" value="3" style="text;strokeColor=none;fillColor=none;align=left;verticalAlign=top;spacingLeft=4;spacingRight=4;overflow=hidden;rotatable=0;points=[[0,0.5],[1,0.5]];portConstraint=eastwest;whiteSpace=wrap;html=1;fontSize=20;fontStyle=0" vertex="1" parent="we2jFcYLo7zp4mPyi02R-35">
          <mxGeometry y="26" width="160" height="42" as="geometry" />
        </mxCell>
        <mxCell id="we2jFcYLo7zp4mPyi02R-37" value="" style="line;strokeWidth=1;fillColor=none;align=left;verticalAlign=middle;spacingTop=-1;spacingLeft=3;spacingRight=3;rotatable=0;labelPosition=right;points=[];portConstraint=eastwest;strokeColor=inherit;fontSize=20;fontStyle=0" vertex="1" parent="we2jFcYLo7zp4mPyi02R-35">
          <mxGeometry y="68" width="160" height="8" as="geometry" />
        </mxCell>
        <mxCell id="we2jFcYLo7zp4mPyi02R-38" style="edgeStyle=orthogonalEdgeStyle;rounded=0;orthogonalLoop=1;jettySize=auto;html=1;exitX=1;exitY=0.25;exitDx=0;exitDy=0;entryX=0;entryY=0.25;entryDx=0;entryDy=0;fontSize=20;fontStyle=0" edge="1" parent="1" source="we2jFcYLo7zp4mPyi02R-39" target="we2jFcYLo7zp4mPyi02R-56">
          <mxGeometry relative="1" as="geometry" />
        </mxCell>
        <mxCell id="we2jFcYLo7zp4mPyi02R-39" value="E, K" style="swimlane;fontStyle=0;align=center;verticalAlign=top;childLayout=stackLayout;horizontal=1;startSize=26;horizontalStack=0;resizeParent=1;resizeParentMax=0;resizeLast=0;collapsible=1;marginBottom=0;whiteSpace=wrap;html=1;fontSize=20;" vertex="1" parent="1">
          <mxGeometry x="800" y="600" width="160" height="60" as="geometry" />
        </mxCell>
        <mxCell id="we2jFcYLo7zp4mPyi02R-40" value="5" style="text;strokeColor=none;fillColor=none;align=left;verticalAlign=top;spacingLeft=4;spacingRight=4;overflow=hidden;rotatable=0;points=[[0,0.5],[1,0.5]];portConstraint=eastwest;whiteSpace=wrap;html=1;fontSize=20;fontStyle=0" vertex="1" parent="we2jFcYLo7zp4mPyi02R-39">
          <mxGeometry y="26" width="160" height="26" as="geometry" />
        </mxCell>
        <mxCell id="we2jFcYLo7zp4mPyi02R-41" value="" style="line;strokeWidth=1;fillColor=none;align=left;verticalAlign=middle;spacingTop=-1;spacingLeft=3;spacingRight=3;rotatable=0;labelPosition=right;points=[];portConstraint=eastwest;strokeColor=inherit;fontSize=20;fontStyle=0" vertex="1" parent="we2jFcYLo7zp4mPyi02R-39">
          <mxGeometry y="52" width="160" height="8" as="geometry" />
        </mxCell>
        <mxCell id="we2jFcYLo7zp4mPyi02R-42" style="edgeStyle=orthogonalEdgeStyle;rounded=0;orthogonalLoop=1;jettySize=auto;html=1;exitX=1;exitY=0.25;exitDx=0;exitDy=0;entryX=0;entryY=0.25;entryDx=0;entryDy=0;fontSize=20;fontStyle=0" edge="1" parent="1" source="we2jFcYLo7zp4mPyi02R-59" target="we2jFcYLo7zp4mPyi02R-39">
          <mxGeometry relative="1" as="geometry">
            <mxPoint x="740" y="613.5" as="sourcePoint" />
          </mxGeometry>
        </mxCell>
        <mxCell id="we2jFcYLo7zp4mPyi02R-44" style="edgeStyle=orthogonalEdgeStyle;rounded=0;orthogonalLoop=1;jettySize=auto;html=1;exitX=1;exitY=0.25;exitDx=0;exitDy=0;entryX=0;entryY=0.25;entryDx=0;entryDy=0;fontSize=20;fontStyle=0" edge="1" parent="1" source="we2jFcYLo7zp4mPyi02R-45" target="we2jFcYLo7zp4mPyi02R-35">
          <mxGeometry relative="1" as="geometry" />
        </mxCell>
        <mxCell id="we2jFcYLo7zp4mPyi02R-45" value="I, H" style="swimlane;fontStyle=0;align=center;verticalAlign=top;childLayout=stackLayout;horizontal=1;startSize=26;horizontalStack=0;resizeParent=1;resizeParentMax=0;resizeLast=0;collapsible=1;marginBottom=0;whiteSpace=wrap;html=1;fontSize=20;" vertex="1" parent="1">
          <mxGeometry x="800" y="318" width="160" height="60" as="geometry" />
        </mxCell>
        <mxCell id="we2jFcYLo7zp4mPyi02R-46" value="3" style="text;strokeColor=none;fillColor=none;align=left;verticalAlign=top;spacingLeft=4;spacingRight=4;overflow=hidden;rotatable=0;points=[[0,0.5],[1,0.5]];portConstraint=eastwest;whiteSpace=wrap;html=1;fontSize=20;fontStyle=0" vertex="1" parent="we2jFcYLo7zp4mPyi02R-45">
          <mxGeometry y="26" width="160" height="26" as="geometry" />
        </mxCell>
        <mxCell id="we2jFcYLo7zp4mPyi02R-47" value="" style="line;strokeWidth=1;fillColor=none;align=left;verticalAlign=middle;spacingTop=-1;spacingLeft=3;spacingRight=3;rotatable=0;labelPosition=right;points=[];portConstraint=eastwest;strokeColor=inherit;fontSize=20;fontStyle=0" vertex="1" parent="we2jFcYLo7zp4mPyi02R-45">
          <mxGeometry y="52" width="160" height="8" as="geometry" />
        </mxCell>
        <mxCell id="we2jFcYLo7zp4mPyi02R-48" style="edgeStyle=orthogonalEdgeStyle;rounded=0;orthogonalLoop=1;jettySize=auto;html=1;exitX=1;exitY=0.25;exitDx=0;exitDy=0;entryX=0;entryY=0.25;entryDx=0;entryDy=0;fontSize=20;fontStyle=0" edge="1" parent="1" source="we2jFcYLo7zp4mPyi02R-49" target="we2jFcYLo7zp4mPyi02R-59">
          <mxGeometry relative="1" as="geometry">
            <mxPoint x="580" y="613.5" as="targetPoint" />
          </mxGeometry>
        </mxCell>
        <mxCell id="we2jFcYLo7zp4mPyi02R-49" value="I, B" style="swimlane;fontStyle=0;align=center;verticalAlign=top;childLayout=stackLayout;horizontal=1;startSize=26;horizontalStack=0;resizeParent=1;resizeParentMax=0;resizeLast=0;collapsible=1;marginBottom=0;whiteSpace=wrap;html=1;fontSize=20;" vertex="1" parent="1">
          <mxGeometry x="390" y="480" width="160" height="60" as="geometry" />
        </mxCell>
        <mxCell id="we2jFcYLo7zp4mPyi02R-50" value="2" style="text;strokeColor=none;fillColor=none;align=left;verticalAlign=top;spacingLeft=4;spacingRight=4;overflow=hidden;rotatable=0;points=[[0,0.5],[1,0.5]];portConstraint=eastwest;whiteSpace=wrap;html=1;fontSize=20;fontStyle=0" vertex="1" parent="we2jFcYLo7zp4mPyi02R-49">
          <mxGeometry y="26" width="160" height="26" as="geometry" />
        </mxCell>
        <mxCell id="we2jFcYLo7zp4mPyi02R-51" value="" style="line;strokeWidth=1;fillColor=none;align=left;verticalAlign=middle;spacingTop=-1;spacingLeft=3;spacingRight=3;rotatable=0;labelPosition=right;points=[];portConstraint=eastwest;strokeColor=inherit;fontSize=20;fontStyle=0" vertex="1" parent="we2jFcYLo7zp4mPyi02R-49">
          <mxGeometry y="52" width="160" height="8" as="geometry" />
        </mxCell>
        <mxCell id="we2jFcYLo7zp4mPyi02R-52" value="M, C" style="swimlane;fontStyle=0;align=center;verticalAlign=top;childLayout=stackLayout;horizontal=1;startSize=26;horizontalStack=0;resizeParent=1;resizeParentMax=0;resizeLast=0;collapsible=1;marginBottom=0;whiteSpace=wrap;html=1;fontSize=20;" vertex="1" parent="1">
          <mxGeometry x="1320" y="480" width="160" height="60" as="geometry" />
        </mxCell>
        <mxCell id="we2jFcYLo7zp4mPyi02R-53" value="6" style="text;strokeColor=none;fillColor=none;align=left;verticalAlign=top;spacingLeft=4;spacingRight=4;overflow=hidden;rotatable=0;points=[[0,0.5],[1,0.5]];portConstraint=eastwest;whiteSpace=wrap;html=1;fontSize=20;fontStyle=0" vertex="1" parent="we2jFcYLo7zp4mPyi02R-52">
          <mxGeometry y="26" width="160" height="26" as="geometry" />
        </mxCell>
        <mxCell id="we2jFcYLo7zp4mPyi02R-54" value="" style="line;strokeWidth=1;fillColor=none;align=left;verticalAlign=middle;spacingTop=-1;spacingLeft=3;spacingRight=3;rotatable=0;labelPosition=right;points=[];portConstraint=eastwest;strokeColor=inherit;fontSize=20;fontStyle=0" vertex="1" parent="we2jFcYLo7zp4mPyi02R-52">
          <mxGeometry y="52" width="160" height="8" as="geometry" />
        </mxCell>
        <mxCell id="we2jFcYLo7zp4mPyi02R-55" style="edgeStyle=orthogonalEdgeStyle;rounded=0;orthogonalLoop=1;jettySize=auto;html=1;exitX=1;exitY=0.25;exitDx=0;exitDy=0;entryX=0;entryY=0.25;entryDx=0;entryDy=0;fontSize=20;fontStyle=0" edge="1" parent="1" source="we2jFcYLo7zp4mPyi02R-56" target="we2jFcYLo7zp4mPyi02R-52">
          <mxGeometry relative="1" as="geometry" />
        </mxCell>
        <mxCell id="we2jFcYLo7zp4mPyi02R-56" value="K, M" style="swimlane;fontStyle=0;align=center;verticalAlign=top;childLayout=stackLayout;horizontal=1;startSize=26;horizontalStack=0;resizeParent=1;resizeParentMax=0;resizeLast=0;collapsible=1;marginBottom=0;whiteSpace=wrap;html=1;fontSize=20;" vertex="1" parent="1">
          <mxGeometry x="1050" y="600" width="160" height="60" as="geometry" />
        </mxCell>
        <mxCell id="we2jFcYLo7zp4mPyi02R-57" value="1" style="text;strokeColor=none;fillColor=none;align=left;verticalAlign=top;spacingLeft=4;spacingRight=4;overflow=hidden;rotatable=0;points=[[0,0.5],[1,0.5]];portConstraint=eastwest;whiteSpace=wrap;html=1;fontSize=20;fontStyle=0" vertex="1" parent="we2jFcYLo7zp4mPyi02R-56">
          <mxGeometry y="26" width="160" height="26" as="geometry" />
        </mxCell>
        <mxCell id="we2jFcYLo7zp4mPyi02R-58" value="" style="line;strokeWidth=1;fillColor=none;align=left;verticalAlign=middle;spacingTop=-1;spacingLeft=3;spacingRight=3;rotatable=0;labelPosition=right;points=[];portConstraint=eastwest;strokeColor=inherit;fontSize=20;fontStyle=0" vertex="1" parent="we2jFcYLo7zp4mPyi02R-56">
          <mxGeometry y="52" width="160" height="8" as="geometry" />
        </mxCell>
        <mxCell id="we2jFcYLo7zp4mPyi02R-59" value="B, E" style="swimlane;fontStyle=0;align=center;verticalAlign=top;childLayout=stackLayout;horizontal=1;startSize=26;horizontalStack=0;resizeParent=1;resizeParentMax=0;resizeLast=0;collapsible=1;marginBottom=0;whiteSpace=wrap;html=1;fontSize=20;" vertex="1" parent="1">
          <mxGeometry x="590" y="600" width="160" height="60" as="geometry" />
        </mxCell>
        <mxCell id="we2jFcYLo7zp4mPyi02R-60" value="4" style="text;strokeColor=none;fillColor=none;align=left;verticalAlign=top;spacingLeft=4;spacingRight=4;overflow=hidden;rotatable=0;points=[[0,0.5],[1,0.5]];portConstraint=eastwest;whiteSpace=wrap;html=1;fontSize=20;fontStyle=0" vertex="1" parent="we2jFcYLo7zp4mPyi02R-59">
          <mxGeometry y="26" width="160" height="26" as="geometry" />
        </mxCell>
        <mxCell id="we2jFcYLo7zp4mPyi02R-61" value="" style="line;strokeWidth=1;fillColor=none;align=left;verticalAlign=middle;spacingTop=-1;spacingLeft=3;spacingRight=3;rotatable=0;labelPosition=right;points=[];portConstraint=eastwest;strokeColor=inherit;fontSize=20;fontStyle=0" vertex="1" parent="we2jFcYLo7zp4mPyi02R-59">
          <mxGeometry y="52" width="160" height="8" as="geometry" />
        </mxCell>
        <mxCell id="we2jFcYLo7zp4mPyi02R-80" value="I" style="ellipse" vertex="1" parent="1">
          <mxGeometry x="250" y="10" width="40" height="40" as="geometry" />
        </mxCell>
        <mxCell id="we2jFcYLo7zp4mPyi02R-81" value="A" style="ellipse" vertex="1" parent="1">
          <mxGeometry x="350" y="-90" width="40" height="40" as="geometry" />
        </mxCell>
        <mxCell id="we2jFcYLo7zp4mPyi02R-82" value="2" edge="1" parent="1" source="we2jFcYLo7zp4mPyi02R-80" target="we2jFcYLo7zp4mPyi02R-81">
          <mxGeometry relative="1" as="geometry" />
        </mxCell>
        <mxCell id="we2jFcYLo7zp4mPyi02R-83" value="H" style="ellipse" vertex="1" parent="1">
          <mxGeometry x="580" y="10" width="40" height="40" as="geometry" />
        </mxCell>
        <mxCell id="we2jFcYLo7zp4mPyi02R-84" value="3" edge="1" parent="1" source="we2jFcYLo7zp4mPyi02R-80" target="we2jFcYLo7zp4mPyi02R-83">
          <mxGeometry relative="1" as="geometry" />
        </mxCell>
        <mxCell id="we2jFcYLo7zp4mPyi02R-85" value="B" style="ellipse" vertex="1" parent="1">
          <mxGeometry x="360" y="120" width="40" height="40" as="geometry" />
        </mxCell>
        <mxCell id="we2jFcYLo7zp4mPyi02R-86" value="2" edge="1" parent="1" source="we2jFcYLo7zp4mPyi02R-80" target="we2jFcYLo7zp4mPyi02R-85">
          <mxGeometry relative="1" as="geometry" />
        </mxCell>
        <mxCell id="we2jFcYLo7zp4mPyi02R-87" value="4" edge="1" parent="1" source="we2jFcYLo7zp4mPyi02R-81" target="we2jFcYLo7zp4mPyi02R-83">
          <mxGeometry relative="1" as="geometry" />
        </mxCell>
        <mxCell id="we2jFcYLo7zp4mPyi02R-88" value="E" style="ellipse" vertex="1" parent="1">
          <mxGeometry x="480" y="120" width="40" height="40" as="geometry" />
        </mxCell>
        <mxCell id="we2jFcYLo7zp4mPyi02R-89" value="4" edge="1" parent="1" source="we2jFcYLo7zp4mPyi02R-85" target="we2jFcYLo7zp4mPyi02R-88">
          <mxGeometry relative="1" as="geometry" />
        </mxCell>
        <mxCell id="we2jFcYLo7zp4mPyi02R-90" value="0" style="dashed" edge="1" parent="1" source="we2jFcYLo7zp4mPyi02R-88" target="we2jFcYLo7zp4mPyi02R-83">
          <mxGeometry relative="1" as="geometry" />
        </mxCell>
        <mxCell id="we2jFcYLo7zp4mPyi02R-91" value="K" style="ellipse" vertex="1" parent="1">
          <mxGeometry x="670" y="120" width="40" height="40" as="geometry" />
        </mxCell>
        <mxCell id="we2jFcYLo7zp4mPyi02R-92" value="5" edge="1" parent="1" source="we2jFcYLo7zp4mPyi02R-88" target="we2jFcYLo7zp4mPyi02R-91">
          <mxGeometry relative="1" as="geometry" />
        </mxCell>
        <mxCell id="we2jFcYLo7zp4mPyi02R-93" value="M" style="ellipse" vertex="1" parent="1">
          <mxGeometry x="750" y="10" width="40" height="40" as="geometry" />
        </mxCell>
        <mxCell id="we2jFcYLo7zp4mPyi02R-94" value="3" edge="1" parent="1" source="we2jFcYLo7zp4mPyi02R-83" target="we2jFcYLo7zp4mPyi02R-93">
          <mxGeometry relative="1" as="geometry" />
        </mxCell>
        <mxCell id="we2jFcYLo7zp4mPyi02R-95" value="1" edge="1" parent="1" source="we2jFcYLo7zp4mPyi02R-91" target="we2jFcYLo7zp4mPyi02R-93">
          <mxGeometry relative="1" as="geometry" />
        </mxCell>
        <mxCell id="we2jFcYLo7zp4mPyi02R-96" value="C" style="ellipse" vertex="1" parent="1">
          <mxGeometry x="850" y="10" width="40" height="40" as="geometry" />
        </mxCell>
        <mxCell id="we2jFcYLo7zp4mPyi02R-97" value="6" edge="1" parent="1" source="we2jFcYLo7zp4mPyi02R-93" target="we2jFcYLo7zp4mPyi02R-96">
          <mxGeometry relative="1" as="geometry" />
        </mxCell>
        <mxCell id="we2jFcYLo7zp4mPyi02R-102" style="edgeStyle=orthogonalEdgeStyle;rounded=0;orthogonalLoop=1;jettySize=auto;html=1;exitX=1;exitY=0.5;exitDx=0;exitDy=0;entryX=0;entryY=0.25;entryDx=0;entryDy=0;" edge="1" parent="1" source="we2jFcYLo7zp4mPyi02R-98" target="we2jFcYLo7zp4mPyi02R-35">
          <mxGeometry relative="1" as="geometry">
            <Array as="points">
              <mxPoint x="1020" y="510" />
              <mxPoint x="1020" y="337" />
            </Array>
          </mxGeometry>
        </mxCell>
        <mxCell id="we2jFcYLo7zp4mPyi02R-98" value="B, H&lt;div&gt;&lt;br&gt;&lt;/div&gt;" style="swimlane;fontStyle=0;align=center;verticalAlign=top;childLayout=stackLayout;horizontal=1;startSize=26;horizontalStack=0;resizeParent=1;resizeParentMax=0;resizeLast=0;collapsible=1;marginBottom=0;whiteSpace=wrap;html=1;fontSize=20;" vertex="1" parent="1">
          <mxGeometry x="610" y="480" width="160" height="60" as="geometry" />
        </mxCell>
        <mxCell id="we2jFcYLo7zp4mPyi02R-99" value="4" style="text;strokeColor=none;fillColor=none;align=left;verticalAlign=top;spacingLeft=4;spacingRight=4;overflow=hidden;rotatable=0;points=[[0,0.5],[1,0.5]];portConstraint=eastwest;whiteSpace=wrap;html=1;fontSize=20;fontStyle=0" vertex="1" parent="we2jFcYLo7zp4mPyi02R-98">
          <mxGeometry y="26" width="160" height="26" as="geometry" />
        </mxCell>
        <mxCell id="we2jFcYLo7zp4mPyi02R-100" value="" style="line;strokeWidth=1;fillColor=none;align=left;verticalAlign=middle;spacingTop=-1;spacingLeft=3;spacingRight=3;rotatable=0;labelPosition=right;points=[];portConstraint=eastwest;strokeColor=inherit;fontSize=20;fontStyle=0" vertex="1" parent="we2jFcYLo7zp4mPyi02R-98">
          <mxGeometry y="52" width="160" height="8" as="geometry" />
        </mxCell>
        <mxCell id="we2jFcYLo7zp4mPyi02R-103" style="edgeStyle=orthogonalEdgeStyle;rounded=0;orthogonalLoop=1;jettySize=auto;html=1;exitX=1;exitY=0.5;exitDx=0;exitDy=0;entryX=0;entryY=0.5;entryDx=0;entryDy=0;" edge="1" parent="1" source="we2jFcYLo7zp4mPyi02R-50" target="we2jFcYLo7zp4mPyi02R-99">
          <mxGeometry relative="1" as="geometry" />
        </mxCell>
      </root>
    </mxGraphModel>
  </diagram>
</mxfile>
